<?xml version="1.0" encoding="UTF-8" standalone="no"?>
<svg width="93px" height="97px" viewBox="0 0 93 97" version="1.1" xmlns="http://www.w3.org/2000/svg" xmlns:xlink="http://www.w3.org/1999/xlink" xmlns:sketch="http://www.bohemiancoding.com/sketch/ns">
    <!-- Generator: Sketch 3.2.2 (9983) - http://www.bohemiancoding.com/sketch -->
    <title>dossier</title>
    <desc>Created with Sketch.</desc>
    <defs></defs>
    <g id="Page-1" stroke="none" stroke-width="1" fill="none" fill-rule="evenodd" sketch:type="MSPage">
        <g id="dossier" sketch:type="MSLayerGroup">
            <path d="M3.86196429,71.0502442 L3.86196429,40.194093 C3.86196429,38.3635 5.34916667,36.8803023 7.18470238,36.8803023 L74.1517857,36.8803023 C75.9794048,36.8803023 77.47,38.3646279 77.47,40.194093 L77.47,44.4722442 L81.2824405,44.4722442 L81.2824405,40.194093 C81.2824405,36.2689767 78.0897619,33.0713605 74.1517857,33.0713605 L7.18357143,33.0713605 C3.24107143,33.0713605 0.0438690476,36.2678488 0.0438690476,40.194093 L0.0438690476,82.2650233 L3.86196429,71.0502442 L3.86196429,71.0502442 Z" id="Shape" fill="#000000" sketch:type="MSShapeGroup"></path>
            <path d="M88.3893452,49.8997326 L50.1303571,49.8997326 C50.2479762,48.9759767 50.0342262,48.0635 49.493631,47.3089302 C48.6759524,46.1753837 47.261131,45.5257093 45.6076786,45.5257093 L22.9219048,45.5257093 C20.2969643,45.5257093 17.763631,47.1273372 17.0477381,49.2365233 L2.82714286,91.0164535 C2.43583333,92.162407 2.60660714,93.386186 3.30440476,94.3358837 C4.10625,95.4705581 5.53238095,96.1224884 7.18470238,96.1224884 L74.1517857,96.1224884 C76.7699405,96.1224884 79.299881,94.5174767 80.0146429,92.4105465 L92.7355952,55.0249419 C93.1382143,53.8530465 92.9617857,52.6292674 92.2628571,51.6829535 C91.4621429,50.561814 90.0484524,49.8997326 88.3893452,49.8997326 Z" id="Shape" fill="#4A4A4A" sketch:type="MSShapeGroup"></path>
            <path d="M22.9219048,40.085814 L45.6076786,40.085814 C49.040119,40.085814 52.080119,41.5588605 53.9201786,44.1304884 C54.006131,44.2331279 54.0819048,44.3639651 54.1588095,44.4722442 L62.1636905,44.4722442 L54.5885714,2.95060465 C54.3295833,1.57343023 53.0222024,0.666593023 51.6356548,0.909093023 L7.70041667,8.88790698 C6.32517857,9.13717442 5.40005952,10.4590814 5.65,11.834 L12.0941667,47.1104186 C13.7193452,42.9642326 18.0814286,40.085814 22.9219048,40.085814 L22.9219048,40.085814 Z" id="Shape" fill="#2AAD8F" sketch:type="MSShapeGroup"></path>
        </g>
    </g>
</svg>